<mxfile>
    <diagram id="nT_DLKsHDVAg-qoqdfdu" name="Страница 1">
        <mxGraphModel dx="820" dy="575" grid="1" gridSize="10" guides="1" tooltips="1" connect="1" arrows="1" fold="1" page="1" pageScale="1" pageWidth="827" pageHeight="1169" background="#F1FAEE" math="0" shadow="0">
            <root>
                <mxCell id="0"/>
                <mxCell id="1" parent="0"/>
                <mxCell id="2" value="&lt;&lt;interface&gt;&gt;&#10;Trunsport" style="swimlane;startSize=40;fillColor=#A8DADC;strokeColor=#457B9D;fontColor=#1D3557;" parent="1" vertex="1">
                    <mxGeometry x="320" y="250" width="200" height="130" as="geometry"/>
                </mxCell>
                <mxCell id="6" value="+outPut() :string" style="text;html=1;align=center;verticalAlign=middle;resizable=0;points=[];autosize=1;strokeColor=none;fontColor=#1D3557;" parent="2" vertex="1">
                    <mxGeometry y="90" width="100" height="20" as="geometry"/>
                </mxCell>
                <mxCell id="4" value="+type :string" style="text;html=1;align=center;verticalAlign=middle;resizable=0;points=[];autosize=1;strokeColor=none;fontColor=#1D3557;" parent="2" vertex="1">
                    <mxGeometry y="70" width="80" height="20" as="geometry"/>
                </mxCell>
                <mxCell id="3" value="+companyName :string" style="text;html=1;align=center;verticalAlign=middle;resizable=0;points=[];autosize=1;strokeColor=none;fontColor=#1D3557;" parent="2" vertex="1">
                    <mxGeometry y="50" width="140" height="20" as="geometry"/>
                </mxCell>
                <mxCell id="28" style="edgeStyle=orthogonalEdgeStyle;rounded=0;orthogonalLoop=1;jettySize=auto;html=1;exitX=0.5;exitY=0;exitDx=0;exitDy=0;entryX=-0.009;entryY=1.13;entryDx=0;entryDy=0;entryPerimeter=0;fillColor=#a20025;strokeColor=#6F0000;dashed=1;startArrow=none;startFill=0;endArrow=block;endFill=1;" edge="1" parent="1" source="11" target="3">
                    <mxGeometry relative="1" as="geometry">
                        <Array as="points">
                            <mxPoint x="170" y="323"/>
                        </Array>
                    </mxGeometry>
                </mxCell>
                <mxCell id="11" value="ShipWay" style="swimlane;startSize=40;fillColor=#A8DADC;strokeColor=#457B9D;fontColor=#1D3557;" parent="1" vertex="1">
                    <mxGeometry x="70" y="390" width="200" height="90" as="geometry"/>
                </mxCell>
                <mxCell id="13" value="+type :string = &quot;Ship&quot;" style="text;html=1;align=center;verticalAlign=middle;resizable=0;points=[];autosize=1;strokeColor=none;fontColor=#1D3557;" parent="11" vertex="1">
                    <mxGeometry y="55" width="120" height="20" as="geometry"/>
                </mxCell>
                <mxCell id="15" value="TruckWay" style="swimlane;startSize=40;fillColor=#A8DADC;strokeColor=#457B9D;fontColor=#1D3557;" parent="1" vertex="1">
                    <mxGeometry x="570" y="390" width="200" height="90" as="geometry"/>
                </mxCell>
                <mxCell id="16" value="+type :string = &quot;Truck&quot;" style="text;html=1;align=center;verticalAlign=middle;resizable=0;points=[];autosize=1;strokeColor=none;fontColor=#1D3557;" parent="15" vertex="1">
                    <mxGeometry y="55" width="130" height="20" as="geometry"/>
                </mxCell>
                <mxCell id="17" value="PlaneWay" style="swimlane;startSize=40;fillColor=#A8DADC;strokeColor=#457B9D;fontColor=#1D3557;" parent="1" vertex="1">
                    <mxGeometry x="320" y="480" width="200" height="90" as="geometry"/>
                </mxCell>
                <mxCell id="18" value="+type :string = &quot;Plane&quot;" style="text;html=1;align=center;verticalAlign=middle;resizable=0;points=[];autosize=1;strokeColor=none;fontColor=#1D3557;" parent="17" vertex="1">
                    <mxGeometry y="55" width="130" height="20" as="geometry"/>
                </mxCell>
                <mxCell id="32" style="edgeStyle=orthogonalEdgeStyle;rounded=0;orthogonalLoop=1;jettySize=auto;html=1;exitX=0.5;exitY=1;exitDx=0;exitDy=0;entryX=0.5;entryY=0;entryDx=0;entryDy=0;dashed=1;startArrow=none;startFill=0;endArrow=openThin;endFill=0;fillColor=#a20025;strokeColor=#6F0000;" edge="1" parent="1" source="19" target="2">
                    <mxGeometry relative="1" as="geometry"/>
                </mxCell>
                <mxCell id="19" value="DeliveryFactory" style="swimlane;fillColor=#A8DADC;strokeColor=#457B9D;fontColor=#1D3557;" parent="1" vertex="1">
                    <mxGeometry x="320" y="120" width="200" height="80" as="geometry"/>
                </mxCell>
                <mxCell id="20" value="+static types : string" style="text;html=1;align=center;verticalAlign=middle;resizable=0;points=[];autosize=1;strokeColor=none;fontColor=#1D3557;" parent="19" vertex="1">
                    <mxGeometry y="30" width="120" height="20" as="geometry"/>
                </mxCell>
                <mxCell id="21" value="&lt;div style=&quot;background-color: rgb(42 , 42 , 46) ; font-family: &amp;#34;consolas&amp;#34; , &amp;#34;courier new&amp;#34; , monospace ; font-size: 18px ; line-height: 24px&quot;&gt;&lt;br&gt;&lt;/div&gt;" style="text;html=1;align=center;verticalAlign=middle;resizable=0;points=[];autosize=1;strokeColor=none;fontColor=#1D3557;" parent="19" vertex="1">
                    <mxGeometry x="50" y="50" width="20" height="30" as="geometry"/>
                </mxCell>
                <mxCell id="22" value="+createinfo : Trunsport" style="text;html=1;align=center;verticalAlign=middle;resizable=0;points=[];autosize=1;strokeColor=none;fontColor=#1D3557;" parent="19" vertex="1">
                    <mxGeometry y="50" width="130" height="20" as="geometry"/>
                </mxCell>
                <mxCell id="29" style="edgeStyle=orthogonalEdgeStyle;rounded=0;orthogonalLoop=1;jettySize=auto;html=1;exitX=0.5;exitY=0;exitDx=0;exitDy=0;fillColor=#a20025;strokeColor=#6F0000;dashed=1;startArrow=none;startFill=0;endArrow=block;endFill=1;" edge="1" parent="1">
                    <mxGeometry relative="1" as="geometry">
                        <mxPoint x="414" y="480" as="sourcePoint"/>
                        <mxPoint x="414" y="380" as="targetPoint"/>
                        <Array as="points">
                            <mxPoint x="414" y="413"/>
                        </Array>
                    </mxGeometry>
                </mxCell>
                <mxCell id="31" style="edgeStyle=orthogonalEdgeStyle;rounded=0;orthogonalLoop=1;jettySize=auto;html=1;exitX=0.5;exitY=0;exitDx=0;exitDy=0;fillColor=#a20025;strokeColor=#6F0000;dashed=1;startArrow=none;startFill=0;endArrow=block;endFill=1;" edge="1" parent="1">
                    <mxGeometry relative="1" as="geometry">
                        <mxPoint x="668" y="390" as="sourcePoint"/>
                        <mxPoint x="520" y="323" as="targetPoint"/>
                        <Array as="points">
                            <mxPoint x="668" y="323"/>
                        </Array>
                    </mxGeometry>
                </mxCell>
            </root>
        </mxGraphModel>
    </diagram>
</mxfile>